<?xml version="1.0" encoding="UTF-8" standalone="no"?><!DOCTYPE svg PUBLIC "-//W3C//DTD SVG 1.1//EN" "http://www.w3.org/Graphics/SVG/1.1/DTD/svg11.dtd"><svg width="100%" height="100%" viewBox="0 0 24 24" version="1.1" xmlns="http://www.w3.org/2000/svg" xmlns:xlink="http://www.w3.org/1999/xlink" xml:space="preserve" xmlns:serif="http://www.serif.com/" style="fill-rule:evenodd;clip-rule:evenodd;stroke-linejoin:round;stroke-miterlimit:2;"><path d="M18.42,9.21c-1.11,-2.549 -3.638,-4.204 -6.418,-4.204c-3.503,-0 -6.494,2.63 -6.942,6.104c-1.793,0.429 -3.068,2.046 -3.068,3.89c-0,2.194 1.805,4 4,4c0.002,0 0.005,0 0.008,0l11,0c2.738,-0.008 4.986,-2.262 4.986,-5c0,-2.203 -1.456,-4.158 -3.566,-4.79Zm-1.42,7.79l-11,0c-1.097,0 -2,-0.903 -2,-2c-0,-1.097 0.903,-2 2,-2c0.549,0 1,-0.451 1,-1c0.006,-2.739 2.261,-4.989 5,-4.989c2.131,-0 4.039,1.363 4.73,3.379c0.119,0.346 0.419,0.6 0.78,0.66c1.417,0.262 2.456,1.509 2.456,2.95c-0,1.633 -1.333,2.981 -2.966,3Z" style="fill:#fff;fill-rule:nonzero;"/></svg>