<?xml version="1.0" encoding="UTF-8" standalone="no"?><!DOCTYPE svg PUBLIC "-//W3C//DTD SVG 1.1//EN" "http://www.w3.org/Graphics/SVG/1.1/DTD/svg11.dtd"><svg width="100%" height="100%" viewBox="0 0 24 24" version="1.1" xmlns="http://www.w3.org/2000/svg" xmlns:xlink="http://www.w3.org/1999/xlink" xml:space="preserve" xmlns:serif="http://www.serif.com/" style="fill-rule:evenodd;clip-rule:evenodd;stroke-linejoin:round;stroke-miterlimit:2;"><path d="M0.295,15.173c-0.156,-0 -0.281,-0.126 -0.281,-0.281c-0,-0.156 0.126,-0.28 0.281,-0.28l2.995,-0l0,-2.331l-2.995,-0c-0.156,-0 -0.281,-0.126 -0.281,-0.28c-0,-0.156 0.126,-0.281 0.281,-0.281l2.995,-0l0,-2.33l-2.995,0c-0.156,0 -0.281,-0.126 -0.281,-0.281c-0,-0.155 0.126,-0.281 0.281,-0.281l2.995,0l0,-2.329l-2.995,-0c-0.156,-0 -0.281,-0.126 -0.281,-0.281c-0,-0.156 0.126,-0.28 0.281,-0.28l2.995,-0l0,-1.5c0,-0.317 0.13,-0.603 0.338,-0.811l-0,-0.001c0.208,-0.209 0.495,-0.339 0.812,-0.339l1.497,-0l-0,-2.993c-0,-0.156 0.125,-0.281 0.28,-0.281c0.156,-0 0.281,0.126 0.281,0.281l-0,2.993l2.329,-0l0,-2.993c0,-0.156 0.127,-0.281 0.281,-0.281c0.156,-0 0.281,0.126 0.281,0.281l0,2.993l2.33,-0l-0,-2.993c-0,-0.156 0.126,-0.281 0.281,-0.281c0.156,-0 0.28,0.126 0.28,0.281l0,2.993l2.331,-0l-0,-2.993c-0,-0.156 0.125,-0.281 0.28,-0.281c0.156,-0 0.281,0.126 0.281,0.281l-0,2.993l2.329,-0l0,-2.993c0,-0.156 0.127,-0.281 0.281,-0.281c0.156,-0 0.281,0.126 0.281,0.281l0,2.993l1.496,-0c0.318,-0 0.605,0.129 0.813,0.339l0.016,0.017c0.199,0.207 0.322,0.487 0.322,0.795l-0,1.5l2.995,-0c0.156,-0 0.281,0.125 0.281,0.28c0,0.156 -0.126,0.281 -0.281,0.281l-2.995,-0l-0,2.329l2.995,0c0.156,0 0.281,0.127 0.281,0.281c0,0.156 -0.126,0.281 -0.281,0.281l-2.995,0l-0,2.33l2.995,-0c0.156,-0 0.281,0.126 0.281,0.281c0,0.155 -0.126,0.28 -0.281,0.28l-2.995,-0l-0,2.331l2.995,-0c0.156,-0 0.281,0.125 0.281,0.28c0,0.156 -0.126,0.281 -0.281,0.281l-2.995,-0l-0,2.329l2.995,0c0.156,0 0.281,0.127 0.281,0.281c0,0.156 -0.126,0.281 -0.281,0.281l-2.995,0l-0,1.494c-0,0.316 -0.13,0.604 -0.339,0.812l0,0.001c-0.208,0.208 -0.495,0.338 -0.813,0.338l-1.496,-0l0,2.997c0,0.156 -0.126,0.281 -0.281,0.281c-0.155,0 -0.281,-0.126 -0.281,-0.281l0,-2.997l-2.329,-0l-0,2.997c-0,0.156 -0.126,0.281 -0.281,0.281c-0.156,0 -0.28,-0.126 -0.28,-0.281l-0,-2.997l-2.331,-0l0,2.997c0,0.156 -0.125,0.281 -0.28,0.281c-0.155,0 -0.281,-0.126 -0.281,-0.281l0,-2.997l-2.33,-0l0,2.997c0,0.156 -0.126,0.281 -0.281,0.281c-0.155,0 -0.281,-0.126 -0.281,-0.281l0,-2.997l-2.329,-0l-0,2.997c-0,0.156 -0.126,0.281 -0.281,0.281c-0.156,0 -0.28,-0.126 -0.28,-0.281l-0,-2.997l-1.497,-0c-0.317,-0 -0.604,-0.13 -0.812,-0.338l-0.016,-0.017c-0.2,-0.207 -0.322,-0.488 -0.322,-0.796l0,-1.494l-2.995,0c-0.156,0 -0.281,-0.126 -0.281,-0.281c-0,-0.155 0.126,-0.281 0.281,-0.281l2.995,0l0,-2.329l-2.995,-0l0.001,-0Zm8.248,-2.209c-0.009,-0.01 -0.016,-0.022 -0.026,-0.031l-0.341,-0.336l-0.643,-0.643l1.568,-1.576c0.141,-0.152 0.484,-0.452 0.233,-0.715c-0.232,-0.229 -0.485,-0.213 -0.775,0.078l-0.39,0.383l-1.628,1.616c-0.122,0.12 -0.121,0.318 0.001,0.438l0.381,0.376l0.988,0.975c0.016,0.015 0.033,0.026 0.051,0.037l0.674,0.676c0.18,0.24 0.478,0.324 0.665,0.184c0.185,-0.138 0.272,-0.429 0.013,-0.688l-0.772,-0.774l0.001,-0Zm6.886,-0c0.007,-0.01 0.016,-0.022 0.025,-0.031l0.341,-0.336l0.642,-0.643l-1.568,-1.576c-0.14,-0.152 -0.484,-0.452 -0.232,-0.715c0.231,-0.229 0.485,-0.213 0.776,0.078l0.388,0.383l1.69,1.677c0.088,0.088 0.088,0.23 0,0.317l-0.443,0.437l-0.001,-0l-0.988,0.975c-0.015,0.015 -0.032,0.026 -0.05,0.037l-0.675,0.676c-0.178,0.24 -0.478,0.324 -0.664,0.184c-0.186,-0.138 -0.272,-0.429 -0.013,-0.688l0.773,-0.774l-0.001,-0.001Zm-2.183,-4.041c0.197,0.078 0.292,0.303 0.213,0.499l-2.199,5.441c-0.079,0.197 -0.303,0.292 -0.5,0.213c-0.196,-0.08 -0.291,-0.304 -0.213,-0.5l2.2,-5.442c0.078,-0.195 0.303,-0.291 0.499,-0.211l0,-0Zm-7.212,-3.862l11.937,-0c0.267,-0 0.508,0.109 0.684,0.285c0.174,0.175 0.283,0.415 0.283,0.682l0,11.937c0,0.267 -0.109,0.508 -0.283,0.683l-0.019,0.017c-0.173,0.165 -0.408,0.268 -0.665,0.268l-11.937,-0c-0.265,-0 -0.507,-0.11 -0.683,-0.285c-0.175,-0.175 -0.283,-0.416 -0.283,-0.683l-0,-11.937c-0,-0.267 0.108,-0.507 0.283,-0.682c0.176,-0.176 0.418,-0.285 0.683,-0.285l0,-0Zm11.937,0.563l-11.937,-0c-0.11,-0 -0.212,0.046 -0.285,0.119c-0.073,0.073 -0.119,0.174 -0.119,0.285l-0,11.937c-0,0.111 0.046,0.213 0.119,0.286c0.073,0.073 0.175,0.119 0.285,0.119l11.937,-0c0.106,-0 0.203,-0.041 0.275,-0.107l0.01,-0.011c0.074,-0.074 0.12,-0.175 0.12,-0.286l0,-11.937c0,-0.111 -0.046,-0.212 -0.12,-0.285c-0.073,-0.073 -0.174,-0.119 -0.285,-0.119l-0,-0.001Zm1.594,-1.778l-15.125,-0c-0.161,-0 -0.309,0.065 -0.415,0.173l-0.001,-0.001c-0.106,0.107 -0.172,0.254 -0.172,0.416l-0,15.125c-0,0.158 0.062,0.3 0.16,0.405l0.013,0.01c0.106,0.107 0.254,0.173 0.415,0.173l15.125,0c0.162,0 0.309,-0.065 0.416,-0.173l0.001,0c0.105,-0.105 0.172,-0.253 0.172,-0.415l0,-15.125c0,-0.156 -0.062,-0.299 -0.161,-0.405l-0.011,-0.01c-0.107,-0.107 -0.254,-0.173 -0.416,-0.173l-0.001,-0Z" style="fill:#fff;fill-rule:nonzero;"/></svg>