<?xml version="1.0" encoding="UTF-8" standalone="no"?><!DOCTYPE svg PUBLIC "-//W3C//DTD SVG 1.1//EN" "http://www.w3.org/Graphics/SVG/1.1/DTD/svg11.dtd"><svg width="100%" height="100%" viewBox="0 0 24 24" version="1.1" xmlns="http://www.w3.org/2000/svg" xmlns:xlink="http://www.w3.org/1999/xlink" xml:space="preserve" xmlns:serif="http://www.serif.com/" style="fill-rule:evenodd;clip-rule:evenodd;stroke-linejoin:round;stroke-miterlimit:2;"><path d="M19.617,10.021c0.331,-0 0.63,-0.129 0.846,-0.335c0.216,-0.208 0.35,-0.494 0.35,-0.81c0,-0.316 -0.134,-0.602 -0.35,-0.81c-0.216,-0.207 -0.515,-0.335 -0.846,-0.335c-0.33,0 -0.63,0.128 -0.846,0.335c-0.217,0.208 -0.35,0.494 -0.35,0.81c0,0.316 0.134,0.602 0.35,0.81c0.216,0.206 0.516,0.335 0.846,0.335Zm-14.514,5.285c-0.003,0.055 -0.015,0.108 -0.033,0.157c-0.025,0.083 -0.046,0.175 -0.062,0.272c-0.014,0.097 -0.023,0.2 -0.023,0.308c0,0.525 0.205,1.003 0.542,1.367c0.336,0.362 0.803,0.61 1.329,0.675c0.295,0.019 0.527,0.253 0.527,0.54l-0,0.115c-0,0.457 0.196,0.874 0.512,1.177c0.316,0.302 0.751,0.489 1.229,0.489c0.478,0 0.914,-0.188 1.23,-0.489c0.316,-0.303 0.512,-0.72 0.512,-1.177l-0,-13.479c-0,-0.457 -0.197,-0.874 -0.512,-1.177c-0.316,-0.302 -0.752,-0.489 -1.23,-0.489c-0.478,-0 -0.913,0.188 -1.229,0.489c-0.316,0.303 -0.512,0.72 -0.512,1.177l-0,1.93c-0,0.299 -0.254,0.542 -0.567,0.542c-0.312,0 -0.566,-0.242 -0.566,-0.542l-0,-1.193c-0.488,0.133 -0.921,0.39 -1.26,0.734c-0.468,0.476 -0.756,1.118 -0.756,1.825c0,0.196 0.022,0.385 0.062,0.563c0.042,0.185 0.104,0.364 0.183,0.534c0.107,0.227 0.038,0.504 -0.181,0.658c-0.344,0.243 -0.627,0.56 -0.821,0.927c-0.187,0.352 -0.292,0.753 -0.292,1.179c-0,0.519 0.157,1.002 0.428,1.406c0.155,0.232 0.349,0.439 0.57,0.614c0.19,-0.446 0.548,-0.986 1.223,-1.389c0.265,-0.158 0.614,-0.08 0.779,0.173c0.165,0.254 0.084,0.588 -0.181,0.745c-0.868,0.518 -0.902,1.339 -0.903,1.342l0.002,-0.003Zm14.514,-2.412c0.643,-0 1.225,0.249 1.646,0.653c0.421,0.403 0.682,0.96 0.682,1.575c-0,0.615 -0.261,1.172 -0.682,1.576c-0.421,0.403 -1.003,0.653 -1.646,0.653c-0.643,-0 -1.225,-0.25 -1.647,-0.653c-0.296,-0.284 -0.512,-0.644 -0.616,-1.046l-5.355,-0l0,1.764l3.967,0c0.312,0 0.566,0.243 0.566,0.542l0,1.211c0.416,0.1 0.787,0.306 1.081,0.587c0.421,0.403 0.682,0.96 0.682,1.575c-0,0.616 -0.26,1.173 -0.682,1.576c-0.421,0.403 -1.004,0.653 -1.646,0.653c-0.643,-0 -1.225,-0.249 -1.647,-0.653c-0.422,-0.403 -0.682,-0.96 -0.682,-1.576c0,-0.615 0.26,-1.172 0.682,-1.575c0.293,-0.28 0.665,-0.487 1.08,-0.587l-0,-0.668l-3.4,-0l0,0.24c0,0.757 -0.324,1.445 -0.844,1.943c-0.522,0.499 -1.24,0.808 -2.031,0.808c-0.791,-0 -1.51,-0.31 -2.03,-0.808c-0.443,-0.423 -0.742,-0.984 -0.822,-1.608c-0.625,-0.162 -1.174,-0.496 -1.59,-0.944c-0.516,-0.555 -0.829,-1.287 -0.829,-2.087c-0,-0.155 0.012,-0.31 0.036,-0.465l0.003,-0.017c-0.495,-0.291 -0.915,-0.688 -1.229,-1.156c-0.386,-0.575 -0.61,-1.259 -0.61,-1.989c0,-0.597 0.15,-1.164 0.416,-1.666c0.208,-0.394 0.488,-0.746 0.823,-1.044c-0.04,-0.118 -0.074,-0.24 -0.101,-0.363c-0.058,-0.257 -0.088,-0.52 -0.088,-0.788c-0,-0.993 0.405,-1.896 1.065,-2.566c0.553,-0.561 1.285,-0.959 2.11,-1.11c0.088,-0.606 0.385,-1.151 0.817,-1.565c0.521,-0.499 1.239,-0.808 2.03,-0.808c0.791,0 1.51,0.31 2.031,0.808c0.521,0.498 0.844,1.186 0.844,1.943l-0,0.24l3.4,0l-0,-0.668c-0.415,-0.1 -0.786,-0.306 -1.08,-0.587c-0.422,-0.403 -0.682,-0.96 -0.682,-1.575c0,-0.616 0.26,-1.173 0.682,-1.576c0.422,-0.403 1.003,-0.653 1.647,-0.653c0.642,0 1.224,0.249 1.646,0.653c0.421,0.403 0.682,0.96 0.682,1.576c-0,0.615 -0.26,1.172 -0.682,1.575c-0.293,0.28 -0.665,0.487 -1.081,0.587l0,1.211c0,0.298 -0.253,0.542 -0.566,0.542l-3.967,-0l-0,1.764l5.355,0c0.103,-0.403 0.319,-0.762 0.616,-1.046c0.422,-0.403 1.003,-0.653 1.647,-0.653c0.643,0 1.225,0.25 1.646,0.653c0.421,0.404 0.682,0.961 0.682,1.576c-0,0.615 -0.261,1.172 -0.682,1.575c-0.421,0.403 -1.003,0.653 -1.646,0.653c-0.643,0 -1.226,-0.249 -1.647,-0.653c-0.29,-0.277 -0.504,-0.628 -0.609,-1.021l-5.361,0l0,5.139l5.361,-0c0.105,-0.392 0.319,-0.744 0.609,-1.021c0.421,-0.403 1.003,-0.653 1.647,-0.653l-0.001,-0.003Zm0.846,1.418c-0.216,-0.206 -0.515,-0.335 -0.846,-0.335c-0.33,0 -0.63,0.129 -0.846,0.335c-0.217,0.208 -0.35,0.494 -0.35,0.81c0,0.316 0.134,0.602 0.35,0.81c0.216,0.207 0.516,0.335 0.846,0.335c0.331,-0 0.63,-0.128 0.846,-0.335c0.216,-0.208 0.35,-0.493 0.35,-0.81c0,-0.316 -0.134,-0.602 -0.35,-0.81Zm-3.651,6.209c-0.216,-0.208 -0.516,-0.335 -0.846,-0.335c-0.331,-0 -0.631,0.128 -0.847,0.335c-0.216,0.207 -0.349,0.493 -0.349,0.809c-0,0.317 0.134,0.603 0.349,0.81c0.216,0.207 0.516,0.335 0.847,0.335c0.33,0 0.629,-0.128 0.846,-0.335c0.217,-0.207 0.351,-0.493 0.351,-0.81c-0,-0.316 -0.134,-0.602 -0.351,-0.809Zm-0.846,-16.709c0.33,0 0.629,-0.128 0.846,-0.335c0.217,-0.207 0.351,-0.493 0.351,-0.809c-0,-0.317 -0.134,-0.603 -0.351,-0.81c-0.216,-0.207 -0.516,-0.335 -0.846,-0.335c-0.331,-0 -0.631,0.128 -0.847,0.335c-0.216,0.207 -0.349,0.493 -0.349,0.81c-0,0.316 0.134,0.602 0.349,0.809c0.216,0.208 0.516,0.335 0.847,0.335Z" style="fill:#fff;fill-rule:nonzero;"/></svg>