<?xml version="1.0" encoding="UTF-8" standalone="no"?><!DOCTYPE svg PUBLIC "-//W3C//DTD SVG 1.1//EN" "http://www.w3.org/Graphics/SVG/1.1/DTD/svg11.dtd"><svg width="100%" height="100%" viewBox="0 0 24 24" version="1.1" xmlns="http://www.w3.org/2000/svg" xmlns:xlink="http://www.w3.org/1999/xlink" xml:space="preserve" xmlns:serif="http://www.serif.com/" style="fill-rule:evenodd;clip-rule:evenodd;stroke-linejoin:round;stroke-miterlimit:2;"><path d="M19.136,4.601c-0.493,-0.854 -1.587,-1.147 -2.441,-0.655c-0.505,0.293 -0.814,0.797 -0.88,1.337l-2.325,0.407c-0.758,-1.102 -1.559,-2.054 -2.331,-2.764c-1.232,-1.134 -2.25,-1.522 -2.942,-1.122l0,-0c-1.806,1.042 -3.097,2.739 -3.636,4.777c-0.458,1.731 -0.323,3.523 0.371,5.135l-2.149,8.175l-0.168,0c-0.811,0 -1.471,0.66 -1.471,1.471l-0,2.31c-0,0.181 0.147,0.328 0.328,0.328l8.481,-0c0.181,-0 0.328,-0.147 0.328,-0.328l0,-2.31c0,-0.811 -0.66,-1.471 -1.471,-1.471l-0.295,0l-1.964,-5.76c0.971,0.99 2.194,1.71 3.572,2.084c0.691,0.188 1.391,0.281 2.085,0.281c1.35,-0 2.678,-0.352 3.87,-1.041c1.267,-0.731 0.628,-3.639 -0.731,-6.506l1.518,-1.814c0.223,0.096 0.463,0.146 0.707,0.146c0.303,-0 0.609,-0.077 0.89,-0.239c0.854,-0.492 1.147,-1.588 0.654,-2.441Zm-11.588,-1.534c-0.05,0.497 0.005,1.115 0.169,1.846c0.158,0.711 0.413,1.492 0.745,2.306c-0.473,0.365 -0.899,0.732 -1.277,1.095c-0.52,-1.286 -0.864,-2.557 -1.003,-3.724c0.379,-0.571 0.838,-1.083 1.366,-1.523Zm1.181,4.776c0.314,0.701 0.681,1.42 1.094,2.135c0.413,0.715 0.851,1.393 1.301,2.015c-0.558,0.222 -1.098,0.4 -1.605,0.534c-0.394,-0.546 -0.769,-1.124 -1.118,-1.729c-0.349,-0.604 -0.662,-1.217 -0.937,-1.831c0.369,-0.373 0.793,-0.751 1.265,-1.124Zm-3.513,-1.094c0.113,-0.429 0.263,-0.84 0.446,-1.232c0.202,1.062 0.55,2.182 1.024,3.307c-0.662,0.721 -1.122,1.419 -1.351,2.051c-0.438,-1.321 -0.484,-2.744 -0.119,-4.126Zm3.614,13.799c0.45,-0 0.815,0.365 0.815,0.814l0,1.981l-7.824,0l-0,-1.981c-0,-0.449 0.365,-0.814 0.814,-0.814l6.195,-0Zm-0.988,-0.657l-4.36,0l1.898,-7.219l2.462,7.219Zm-1.903,-7.671c-0,0 -0,0 -0,0c-0,-0 -0.001,-0 -0.001,-0.001c-0.343,-0.596 0.076,-1.614 1.042,-2.731c0.256,0.55 0.541,1.098 0.853,1.638c0.312,0.541 0.645,1.062 0.993,1.559c-1.45,0.277 -2.542,0.132 -2.887,-0.465Zm4.377,3.362c-1.38,-0.375 -2.59,-1.127 -3.515,-2.167c0.23,0.04 0.481,0.06 0.754,0.06c0.092,0 0.187,-0.002 0.285,-0.007c0.437,-0.021 0.911,-0.089 1.411,-0.199c0.738,0.974 1.536,1.836 2.354,2.542c-0.43,-0.037 -0.862,-0.113 -1.289,-0.229Zm2.353,0.243c-0.942,-0.704 -1.87,-1.638 -2.725,-2.732c0.509,-0.146 1.041,-0.332 1.587,-0.557c0.539,0.695 1.089,1.305 1.625,1.798c0.552,0.507 1.06,0.864 1.515,1.068c-0.645,0.239 -1.318,0.38 -2.002,0.423Zm3.289,-3.335c0.279,1.25 0.207,2.169 -0.187,2.397c-0.395,0.228 -1.227,-0.169 -2.171,-1.036c-1.077,-0.99 -2.216,-2.482 -3.208,-4.201c-0.993,-1.72 -1.716,-3.453 -2.035,-4.88c-0.279,-1.251 -0.207,-2.169 0.188,-2.398c0,0 0,0 0,0c0.074,-0.042 0.163,-0.063 0.265,-0.063c0.445,-0 1.138,0.394 1.905,1.099c0.679,0.625 1.384,1.451 2.061,2.406l-1.936,0.34l0.113,0.646l2.23,-0.39c0.254,0.384 0.502,0.785 0.741,1.2c0.239,0.414 0.462,0.829 0.668,1.241l-1.452,1.735l0.503,0.422l1.262,-1.507c0.489,1.065 0.851,2.088 1.053,2.989Zm-0.908,-4.185c-0.178,-0.345 -0.364,-0.688 -0.557,-1.023c-0.197,-0.341 -0.4,-0.673 -0.607,-0.995l1.973,-0.346c0.039,0.153 0.099,0.303 0.182,0.447c0.083,0.143 0.182,0.27 0.295,0.381l-1.286,1.536Zm3.631,-2.518c-0.078,0.292 -0.265,0.536 -0.526,0.687c-0.541,0.312 -1.234,0.126 -1.545,-0.414c-0.311,-0.54 -0.126,-1.233 0.414,-1.545c0.174,-0.1 0.367,-0.152 0.563,-0.152c0.098,0 0.197,0.013 0.294,0.039c0.292,0.078 0.535,0.265 0.687,0.527c0.15,0.261 0.191,0.566 0.113,0.858Zm3.954,1.56c-0.403,1.506 -1.369,2.765 -2.72,3.545l-0.328,-0.569c1.199,-0.692 2.056,-1.809 2.414,-3.145c0.358,-1.337 0.174,-2.733 -0.518,-3.932c-1.429,-2.474 -4.604,-3.325 -7.077,-1.897l-0.328,-0.568c2.787,-1.61 6.364,-0.651 7.974,2.137c0.779,1.35 0.986,2.923 0.583,4.429Zm-3.613,1.999l-0.328,-0.568c0.786,-0.454 1.348,-1.186 1.583,-2.063c0.235,-0.876 0.114,-1.791 -0.339,-2.577c-0.936,-1.622 -3.018,-2.18 -4.64,-1.243l-0.329,-0.569c1.936,-1.117 4.42,-0.452 5.537,1.484c0.541,0.937 0.685,2.03 0.405,3.075c-0.28,1.046 -0.951,1.92 -1.889,2.461Z" style="fill:#fff;fill-rule:nonzero;"/></svg>